<svg height="512pt" viewBox="0 0 512 512" width="512pt" xmlns="http://www.w3.org/2000/svg"><path d="m512 256c0 17.34375-1.722656 34.304688-5.015625 50.6875-2.027344 10.074219-4.640625 19.917969-7.804687 29.53125-1.085938 3.277344-2.226563 6.527344-3.4375 9.746094-8.296876 22.089844-19.5625 42.746094-33.324219 61.453125-.289063.40625-.59375.8125-.898438 1.222656-12.140625 16.339844-26.195312 31.167969-41.816406 44.175781-15.234375 12.695313-31.972656 23.648438-49.894531 32.558594-.019532.011719-.039063.023438-.0625.03125-34.261719 17.023438-72.878906 26.59375-113.746094 26.59375-56.332031 0-108.398438-18.191406-150.675781-49.015625-4.835938-3.53125-9.550781-7.222656-14.125-11.078125-7.671875-6.457031-14.953125-13.363281-21.808594-20.667969-43.039063-45.796875-69.390625-107.445312-69.390625-175.238281 0-23.386719 3.132812-46.046875 9.027344-67.585938 3.46875-12.726562 7.898437-25.054687 13.199218-36.902343 1.042969-2.34375 2.128907-4.671875 3.269532-6.980469.34375-.722656.699218-1.433594 1.054687-2.144531 9.257813-18.703125 20.75-36.109375 34.125-51.878907 46.960938-55.367187 117.039063-90.507812 195.324219-90.507812 17.480469 0 34.554688 1.753906 51.0625 5.089844 17.871094 3.625 35.070312 9.101562 51.378906 16.238281 12.121094 5.285156 23.742188 11.492187 34.796875 18.523437 20.5625 13.09375 39.121094 29.027344 55.136719 47.25 9.3125 10.597657 17.765625 21.964844 25.234375 34.003907 9.488281 15.265625 17.417969 31.617187 23.554687 48.816406.355469.992187.707032 1.996094 1.054688 3 8.933594 26.058594 13.78125 54 13.78125 83.078125zm0 0" fill="#274b7b"/><path d="m499.179688 336.21875c-15.171876 46.027344-43.050782 86.273438-79.476563 116.597656-109.503906 6.644532-219.007813 6.34375-328.503906-.910156-55.765625-46.964844-91.199219-117.296875-91.199219-195.90625 0-63.089844 22.832031-120.875 60.675781-165.492188 9.5-2.609374 18.328125-4.242187 25.214844-4.710937 117.832031-8.035156 235.675781-8.035156 353.511719 0 3.058594.207031 6.058594.648437 8.972656 1.304687 24.554688 5.488282 43.457031 26.113282 46.050781 51.796876 1.035157 10.34375 1.953125 20.679687 2.738281 31.023437 4.25 55.429687 4.917969 110.863281 2.015626 166.296875zm0 0" fill="#f2a85f"/><path d="m489.210938 230.453125c-117.019532 94.449219-246.148438 172.636719-383.886719 232.53125-4.835938-3.53125-9.550781-7.222656-14.125-11.078125-7.671875-6.457031-14.953125-13.363281-21.808594-20.667969-43.039063-45.796875-69.390625-107.445312-69.390625-175.238281 0-23.386719 3.132812-46.046875 9.027344-67.585938 105.285156-47.707031 204.257812-108.46875 294.566406-180.878906 1.121094-.898437 2.277344-1.714844 3.46875-2.445312 14.097656-8.675782 32.726562-5.90625 43.667969 7.074218 2.570312 3.050782 5.140625 6.109376 7.710937 9.164063 45.140625 53.621094 90.289063 107.234375 135.429688 160.859375 12.246094 14.546875 10.136718 36.3125-4.660156 48.265625zm0 0" fill="#259973"/><g fill="#36b990"><path d="m307.558594 44.335938c5.894531-4.578126 11.753906-9.21875 17.566406-13.894532l14.429688 17.125c-.96875.828125-2.023438 1.574219-3.160157 2.238282-9.765625 5.679687-22.042969 3.152343-28.835937-5.46875zm0 0"/><path d="m452.222656 215.652344c-5.5625-9.554688-3.253906-21.523438 4.933594-28.394532l14.429688 17.125c-5.804688 4.695313-11.636719 9.359376-17.511719 13.976563-.671875-.84375-1.292969-1.75-1.851563-2.707031zm0 0"/><path d="m512 256c0 17.34375-1.722656 34.304688-5.015625 50.6875-139.546875 61.253906-286.78125 103.152344-437.59375 124.550781-43.039063-45.796875-69.390625-107.445312-69.390625-175.238281 0-37.207031 7.941406-72.578125 22.226562-104.488281 1.042969-2.34375 2.128907-4.671875 3.269532-6.980469 126.796875-17.703125 250.566406-52.925781 367.742187-104.679688 1.441407-.625 2.871094-1.261718 4.304688-1.902343 16.8125-7.492188 36.519531-.175781 44.40625 16.449219 10.554687 22.234374 21.109375 44.46875 31.660156 66.707031 8.203125 17.269531 16.40625 34.542969 24.609375 51.816406 8.933594 26.058594 13.78125 54 13.78125 83.078125zm0 0"/></g><path d="m20.164062 352.417969-11.796874-120.449219c2.996093-.296875 6.019531-.855469 9.019531-1.6875 26.019531-7.210938 42.140625-32.5625 38.46875-58.597656 52.710937-8.363282 105.023437-19.722656 156.296875-33.933594 51.285156-14.214844 101.96875-31.40625 151.460937-51.371094 10.257813 24.210938 37.121094 37.648438 63.140625 30.433594 3.011719-.832031 5.886719-1.914062 8.609375-3.199219l51.886719 109.335938c-22.9375 10.859375-35.441406 36.953125-28.429688 62.25.660157 2.375 1.472657 4.675781 2.425782 6.871093-61.417969 25.375-124.484375 47.0625-188.367188 64.769532-63.878906 17.707031-129.113281 31.582031-194.832031 41.449218-.308594-2.375-.796875-4.765624-1.457031-7.144531-7.011719-25.304687-31.160156-41.230469-56.425782-38.726562zm0 0" fill="#77d9a5"/><path d="m392.03125 74.554688c6.863281-2.933594 13.707031-5.9375 20.519531-8.984376l9.609375 20.226563c-1.148437.554687-2.355468 1.007813-3.625 1.359375-10.886718 3.019531-22.121094-2.539062-26.503906-12.601562zm0 0" fill="#77d9a5"/><path d="m488.476562 276.976562c-2.953124-10.652343 2.316407-21.644531 11.980469-26.210937l9.609375 20.226563c-6.804687 3.066406-13.632812 6.097656-20.484375 9.070312-.4375-.984375-.808593-2.019531-1.105469-3.085938zm0 0" fill="#77d9a5"/><path d="m154.0625 272.3125c15.265625 55.078125 67.296875 88.738281 116.21875 75.179688 48.917969-13.558594 76.199219-69.199219 60.933594-124.28125-15.265625-55.078126-67.296875-88.738282-116.21875-75.179688-48.917969 13.558594-76.199219 69.203125-60.933594 124.28125zm0 0" fill="#36b990"/><path d="m256.984375 320.859375c-24.210937 5.851563-47.234375-1.113281-50.78125-13.90625-1.882813-6.796875 1.34375-18.453125 8.9375-20.558594 8.398437-2.328125 18.460937 7.582031 33.972656 6.082031l-8.972656-32.382812c-20.332031-1.902344-44.300781-4.511719-51.394531-30.097656-7.035156-25.386719 8.375-42.789063 28.730468-51.664063l-1.550781-5.59375c-.773437-2.800781 1.703125-6.285156 6.101563-7.503906 3.796875-1.050781 8.316406.492187 9.089844 3.292969l1.386718 4.996094c12.503906-3.035157 36.777344-6.320313 40.601563 7.472656 1.496093 5.398437.945312 17.390625-7.851563 19.828125-6.59375 1.828125-12.167968-3.515625-25.4375-.914063l8.089844 29.1875c20.074219 1.753906 43.867188 5.273438 51.347656 32.261719 6.871094 24.785156-4.964844 44.210937-27.300781 54.492187l1.605469 5.796876c.777344 2.796874-2.300782 6.449218-6.097656 7.5-4.398438 1.222656-8.316407-.492188-9.09375-3.289063zm-23.601563-92.90625-6.59375-23.785156c-8.496093 4.292969-11.019531 9.941406-9.6875 14.738281 1.605469 5.796875 7.800782 7.953125 16.28125 9.046875zm21.445313 33.878906 7.425781 26.785157c6.351563-3.480469 10.699219-8.777344 8.703125-15.972657-1.828125-6.597656-7.988281-9.410156-16.128906-10.8125zm0 0" fill="#77d9a5"/><path d="m461.519531 408.640625c-12.140625 16.339844-26.195312 31.167969-41.816406 44.175781-15.234375 12.695313-31.972656 23.648438-49.894531 32.558594-34.28125 17.042969-72.921875 26.625-113.808594 26.625-62.777344 0-120.269531-22.589844-164.800781-60.09375-55.765625-46.964844-91.199219-117.296875-91.199219-195.90625 0-37.207031 7.941406-72.578125 22.226562-104.488281 7.929688-4.839844 17.09375-7.871094 26.894532-8.539063 117.84375-8.035156 235.675781-8.035156 353.507812 0 28.820313 1.964844 52.140625 24.367188 55.027344 53.101563 7.125 70.855469 8.421875 141.710937 3.863281 212.566406zm0 0" fill="#fee175"/><path d="m495.742188 345.964844c-8.296876 22.089844-19.5625 42.746094-33.324219 61.453125-35.847657 1.847656-71.699219 1.816406-107.550781-.097657-16.027344-.855468-28.941407-13.5-30.238282-29.496093-1.703125-21.023438-1.703125-42.046875 0-63.058594 1.296875-15.996094 14.210938-28.652344 30.238282-29.507813 36.457031-1.945312 72.914062-1.945312 109.371093 0 16.019531.855469 28.941407 13.511719 30.226563 29.507813.847656 10.394531 1.265625 20.792969 1.277344 31.199219zm0 0" fill="#fcbc77"/><path d="m410.90625 346.289062c0 15.871094-10.847656 29.195313-25.527344 32.976563-2.714844.691406-5.570312 1.066406-8.503906 1.066406-18.808594 0-34.042969-15.234375-34.042969-34.042969 0-18.796874 15.234375-34.042968 34.042969-34.042968 2.933594 0 5.789062.375 8.503906 1.078125 14.679688 3.769531 25.527344 17.105469 25.527344 32.964843zm0 0" fill="#2c363b"/><path d="m410.90625 346.289062c0 15.871094-10.847656 29.195313-25.527344 32.976563-14.679687-3.78125-25.527344-17.105469-25.527344-32.976563 0-15.859374 10.847657-29.195312 25.527344-32.964843 14.679688 3.769531 25.527344 17.105469 25.527344 32.964843zm0 0" fill="#3f4b4f"/><path d="m369.808594 485.375c-.019532.011719-.039063.023438-.0625.03125-34.261719 17.023438-72.878906 26.59375-113.746094 26.59375-56.332031 0-108.398438-18.191406-150.675781-49.015625-4.835938-3.53125-9.550781-7.222656-14.125-11.078125-7.671875-6.457031-14.953125-13.363281-21.808594-20.667969-43.039063-45.796875-69.390625-107.445312-69.390625-175.238281 0-23.386719 3.132812-46.046875 9.027344-67.585938 3.46875-12.726562 7.898437-25.054687 13.199218-36.902343 1.042969-2.34375 2.128907-4.671875 3.269532-6.980469.34375-.722656.699218-1.433594 1.054687-2.144531 10.1875.410156 19.015625.828125 22.570313.585937-12.675782 88.261719 11.335937 400.457032 320.6875 342.402344zm0 0" fill="#fcbc77"/></svg>